HIERARCHY
ROOT Bone
{
	OFFSET 0.000000 0.000000 0.000000
	CHANNELS 6 Xposition Yposition Zposition Zrotation Yrotation Xrotation
	JOINT Bone.002
	{
		OFFSET 0.000000 0.000000 1.000000
		CHANNELS 3 Zrotation Yrotation Xrotation
		JOINT Bone.003
		{
			OFFSET 0.005903 -0.000000 1.275040
			CHANNELS 3 Zrotation Yrotation Xrotation
			JOINT Bone.004
			{
				OFFSET 0.000000 -0.000000 1.682344
				CHANNELS 3 Zrotation Yrotation Xrotation
				JOINT Bone.005
				{
					OFFSET -0.011806 -0.000000 1.593800
					CHANNELS 3 Zrotation Yrotation Xrotation
					JOINT Bone.006
					{
						OFFSET 0.000000 -0.000000 1.970702
						CHANNELS 3 Zrotation Yrotation Xrotation
						End Site
						{
							OFFSET 0.048962 -0.000000 2.570480
						}
					}
				}
			}
		}
	}
}
MOTION
Frames: 50
Frame Time: 0.041667
0.000000 0.000000 0.000000 0.003437 0.056621 0.003078 -0.002071 0.103025 0.004186 -0.000000 -0.000000 -0.000000 1.466585 4.032610 8.127855 1.344010 -9.291283 -0.338563 25.962958 3.208261 3.485744 
0.000000 0.000000 0.000000 0.013596 0.223422 0.012147 -0.008016 0.403046 0.016377 0.012203 0.025783 0.008593 1.461829 4.083479 8.139120 1.313626 -9.174531 -0.320216 25.937030 3.253580 3.526696 
0.000000 0.000000 0.000000 0.030300 0.495805 0.026958 -0.017326 0.886481 0.036025 0.048184 0.101689 0.033899 1.447942 4.233289 8.172326 1.224590 -8.830615 -0.266248 25.861147 3.387253 3.647445 
0.000000 0.000000 0.000000 0.053427 0.869171 0.047263 -0.029380 1.539751 0.062587 0.107060 0.225523 0.075206 1.425649 4.477862 8.226675 1.080663 -8.268896 -0.178386 25.738788 3.606146 3.845039 
0.000000 0.000000 0.000000 0.082902 1.338915 0.072820 -0.043476 2.349277 0.095537 0.188019 0.395057 0.131804 1.395862 4.813032 8.301438 0.886286 -7.498581 -0.058415 25.574173 3.907450 4.116776 
0.000000 0.000000 0.000000 0.118687 1.900431 0.103391 -0.058862 3.301482 0.134368 0.290309 0.608036 0.202986 1.359653 5.234647 8.395949 0.646452 -6.528756 0.091866 25.372189 4.288611 4.460179 
0.000000 0.000000 0.000000 0.160776 2.549110 0.138748 -0.074763 4.382788 0.178600 0.413222 0.862177 0.288045 1.318228 5.738561 8.509619 0.366598 -5.368408 0.270728 25.138296 4.747250 4.872970 
0.000000 0.000000 0.000000 0.209188 3.280343 0.178672 -0.090407 5.579612 0.227782 0.556089 1.155181 0.386280 1.272907 6.320629 8.641911 0.052496 -4.026484 0.476569 24.878424 5.281095 5.353054 
0.000000 0.000000 0.000000 0.263957 4.089517 0.222959 -0.105039 6.878377 0.281494 0.718268 1.484734 0.496993 1.225098 6.976705 8.792359 -0.289836 -2.511890 0.708005 24.598926 5.887890 5.898507 
0.000000 0.000000 0.000000 0.325127 4.972019 0.271417 -0.117946 8.265492 0.339346 0.899132 1.848512 0.619492 1.176286 7.702640 8.960547 -0.654203 -0.833552 0.963906 24.306492 6.565357 6.507579 
0.000000 0.000000 0.000000 0.392750 5.923235 0.323873 -0.128468 9.727375 0.400975 1.098062 2.244183 0.753091 1.128004 8.494262 9.146118 -1.034290 0.999581 1.243483 24.008072 7.311079 7.178662 
0.000000 0.000000 0.000000 0.466877 6.938549 0.380169 -0.136015 11.250439 0.466038 1.314439 2.669411 0.897110 1.081829 9.347420 9.348773 -1.423694 2.978477 1.546320 23.710843 8.122487 7.910319 
0.000000 0.000000 0.000000 0.547555 8.013348 0.440167 -0.140074 12.821087 0.534207 1.547636 3.121861 1.050877 1.039357 10.257897 9.568262 -1.815943 5.094055 1.872424 23.422081 8.996752 8.701249 
0.000000 0.000000 0.000000 0.634826 9.143013 0.503747 -0.140226 14.425728 0.605152 1.797008 3.599210 1.213723 1.002195 11.221509 9.804390 -2.204494 7.337091 2.222286 23.149174 9.930777 9.550326 
0.000000 0.000000 0.000000 0.728719 10.322933 0.570806 -0.136155 16.050767 0.678536 2.061890 4.099122 1.384990 0.971943 12.233988 10.057000 -2.582715 9.698259 2.596898 22.899459 10.921108 10.456571 
0.000000 0.000000 0.000000 0.829252 11.548491 0.641262 -0.127655 17.682605 0.753996 2.341588 4.619297 1.564022 0.950186 13.291114 10.325981 -2.943845 12.168087 2.997834 22.680261 11.963921 11.419158 
0.000000 0.000000 0.000000 0.936423 12.815072 0.715047 -0.114650 19.307644 0.831129 2.635374 5.157431 1.750169 0.938477 14.388584 10.611255 -3.280938 14.736927 3.427268 22.498746 13.055000 12.437401 
0.000000 0.000000 0.000000 1.050216 14.118070 0.792110 -0.097195 20.912286 0.909476 2.942480 5.711251 1.942783 0.938328 15.522103 10.912765 -3.586792 17.394965 3.888066 22.361884 14.189685 13.510734 
0.000000 0.000000 0.000000 1.170590 15.452869 0.872413 -0.075491 22.482944 0.988502 3.262094 6.278492 2.141222 0.951196 16.687339 11.230482 -3.853852 20.132203 4.383857 22.276363 15.362890 14.638718 
0.000000 0.000000 0.000000 1.297485 16.814864 0.955929 -0.049897 24.005994 1.067583 3.593359 6.856915 2.344839 0.978468 17.879933 11.564377 -4.074090 22.938395 4.919121 22.248556 16.569091 15.820957 
0.000000 0.000000 0.000000 1.430811 18.199445 1.042641 -0.020933 25.467877 1.145986 3.935365 7.444307 2.552991 1.021450 19.095501 11.914410 -4.238866 25.803090 5.499321 22.284361 17.802335 17.057117 
0.000000 0.000000 0.000000 1.570451 19.602009 1.132536 0.010715 26.854982 1.222860 4.287150 8.038487 2.765031 1.081357 20.329662 12.280544 -4.338737 28.715587 6.131061 22.389223 19.056274 18.346814 
0.000000 0.000000 0.000000 1.716259 21.017959 1.225602 0.044191 28.153726 1.297222 4.647692 8.637282 2.980305 1.159288 21.577983 12.662687 -4.363256 31.664883 6.822262 22.567939 20.324191 19.689560 
0.000000 0.000000 0.000000 1.868051 22.442695 1.321824 0.078477 29.350508 1.367959 5.015913 9.238588 3.198157 1.256205 22.836015 13.060707 -4.300693 34.639687 7.582432 22.824641 21.599042 21.084721 
0.000000 0.000000 0.000000 2.025607 23.871626 1.421181 0.112412 30.431768 1.433830 5.390675 9.840296 3.417921 1.372939 24.099324 13.474384 -4.137710 37.628366 8.422944 23.162660 22.873547 22.531312 
0.000000 0.000000 0.000000 2.188665 25.300154 1.523637 0.144716 31.383934 1.493485 5.770778 10.440357 3.638918 1.510132 25.363458 13.903422 -3.858963 40.618848 9.357423 23.584392 24.140221 24.028015 
0.000000 0.000000 0.000000 2.356914 26.723694 1.629137 0.174029 32.193403 1.545488 6.154958 11.036735 3.860460 1.668254 26.623951 14.347391 -3.446625 43.598655 10.402235 24.091249 25.391517 25.572947 
0.000000 0.000000 0.000000 2.529992 28.137673 1.737601 0.198962 32.846615 1.588357 6.541892 11.627456 4.081850 1.847542 27.876365 14.805716 -2.879773 46.554767 11.577025 24.683450 26.619863 27.163560 
0.000000 0.000000 0.000000 2.707479 29.537505 1.848912 0.218168 33.330008 1.620624 6.930193 12.210559 4.302369 2.048000 29.116256 15.277644 -2.133709 49.473516 12.905435 25.360004 27.817848 28.796532 
0.000000 0.000000 0.000000 2.888888 30.918627 1.962915 0.230417 33.630004 1.640887 7.318419 12.784139 4.521287 2.269358 30.339212 15.762215 -1.179083 52.340522 14.415927 26.118473 28.978259 30.467575 
0.000000 0.000000 0.000000 3.073660 32.276469 2.079399 0.234682 33.733020 1.647889 7.705054 13.346309 4.737852 2.511035 31.540837 16.258224 0.018999 55.140438 16.142684 26.955010 30.094281 32.171356 
0.000000 0.000000 0.000000 3.261157 33.606470 2.198096 0.234682 33.733024 1.647889 8.088537 13.895233 4.951298 2.772133 32.716787 16.764190 1.501957 57.856880 18.126591 27.864155 31.159634 33.901354 
0.000000 0.000000 0.000000 3.450652 34.904083 2.318667 0.234682 33.733020 1.647889 8.467251 14.429102 5.160843 3.051391 33.862760 17.278323 3.318626 60.472152 20.416081 28.838920 32.168647 35.649817 
0.000000 0.000000 0.000000 3.641318 36.164755 2.440692 0.234682 33.733024 1.647888 8.839517 14.946141 5.365682 3.347149 34.974523 17.798486 5.525610 62.967002 23.067490 29.870634 33.116456 37.407710 
0.000000 0.000000 0.000000 3.832227 37.383937 2.563659 0.234681 33.733020 1.647888 9.203616 15.444613 5.564991 3.657343 36.047901 18.322177 8.186612 65.320466 26.144405 30.949121 33.999046 39.164697 
0.000000 0.000000 0.000000 4.022337 38.557118 2.686959 0.234682 33.733017 1.647888 9.557777 15.922807 5.757934 3.979459 37.078775 18.846480 11.369397 67.509672 29.714574 32.062677 34.813454 40.909220 
0.000000 0.000000 0.000000 4.210484 39.679752 2.809870 0.234682 33.733020 1.647889 9.900190 16.379028 5.943651 4.310546 38.063138 19.368069 15.139198 69.510227 33.843321 33.198336 35.557702 42.628635 
0.000000 0.000000 0.000000 4.395383 40.747334 2.931560 0.234682 33.733017 1.647889 10.229014 16.811631 6.121271 4.647184 38.997074 19.883193 19.545747 71.296834 38.580593 34.341983 36.230960 44.309326 
0.000000 0.000000 0.000000 4.575619 41.755337 3.051073 0.234682 33.733020 1.647889 10.542371 17.218962 6.289910 4.985497 39.876717 20.387657 24.603263 72.845183 43.940851 35.478605 36.833472 45.936932 
0.000000 0.000000 0.000000 4.749658 42.699273 3.167335 0.234682 33.733024 1.647889 10.838363 17.599401 6.448660 5.321193 40.698341 20.876845 30.264309 74.135003 49.877043 36.592585 37.366483 47.496606 
0.000000 0.000000 0.000000 4.915842 43.574630 3.279158 0.234681 33.733020 1.647889 11.115078 17.951346 6.596621 5.649573 41.458289 21.345781 36.396009 75.154593 56.256611 37.668005 37.832230 48.973208 
0.000000 0.000000 0.000000 5.072408 44.376910 3.385240 0.234682 33.733020 1.647888 11.370585 18.273182 6.732867 5.965584 42.152991 21.789108 42.772940 75.905689 62.854556 38.688896 38.233705 50.351571 
0.000000 0.000000 0.000000 5.217506 45.101638 3.484193 0.234682 33.733017 1.647888 11.602964 18.563312 6.856480 6.263914 42.778923 22.201207 49.100594 76.406881 69.376779 39.639536 38.574562 51.616761 
0.000000 0.000000 0.000000 5.349216 45.744318 3.574556 0.234682 33.733017 1.647889 11.810294 18.820135 6.966536 6.539062 43.332667 22.576278 55.067697 76.693428 75.512413 40.504651 38.858845 52.754209 
0.000000 0.000000 0.000000 5.465590 46.300449 3.654827 0.234681 33.733024 1.647889 11.990676 19.042035 7.062116 6.785472 43.810797 22.908420 60.404130 76.812895 80.991557 41.269762 39.090778 53.749959 
0.000000 0.000000 0.000000 5.564688 46.765574 3.723500 0.234682 33.733017 1.647888 12.142242 19.227379 7.142300 6.997651 44.209895 23.191791 64.916440 76.818147 85.621141 41.921112 39.274428 54.590669 
0.000000 0.000000 0.000000 5.644619 47.135180 3.779105 0.234682 33.733017 1.647888 12.263147 19.374518 7.206190 7.170326 44.526536 23.420700 68.491464 76.760418 89.287785 42.446060 39.413549 55.263795 
0.000000 0.000000 0.000000 5.703596 47.404771 3.820256 0.234682 33.733013 1.647888 12.351601 19.481779 7.252887 7.298593 44.757215 23.589805 71.074231 76.684002 91.936675 42.833014 39.511152 55.757556 
0.000000 0.000000 0.000000 5.739996 47.569839 3.845705 0.234682 33.733024 1.647889 12.405882 19.547421 7.281526 7.378142 44.898382 23.694280 72.640264 76.623104 93.542863 43.071651 39.569291 56.061079 
0.000000 0.000000 0.000000 5.752403 47.625878 3.854389 0.234682 33.733024 1.647889 12.424330 19.569711 7.291257 7.405310 44.946278 23.729909 73.168641 76.600032 94.084790 43.152954 39.588746 56.164307 
